<?xml version="1.0" standalone="no"?>
<!DOCTYPE svg PUBLIC "-//W3C//DTD SVG 20010904//EN"
 "http://www.w3.org/TR/2001/REC-SVG-20010904/DTD/svg10.dtd">
<svg version="1.0" xmlns="http://www.w3.org/2000/svg"
 width="681.000000pt" height="681.000000pt" viewBox="0 0 681.000000 681.000000"
 preserveAspectRatio="xMidYMid meet">
<metadata>
Created by potrace 1.14, written by Peter Selinger 2001-2017
</metadata>
<g transform="translate(0.000000,681.000000) scale(0.100000,-0.100000)"
fill="#000000" stroke="none">
<path d="M4023 6565 c-53 -16 -121 -56 -149 -87 -26 -27 -121 -206 -334 -623
-84 -165 -196 -383 -248 -485 -176 -343 -515 -1015 -510 -1010 3 3 72 104 153
225 468 697 653 971 900 1330 230 334 380 560 386 580 8 28 -9 61 -38 74 -32
15 -108 13 -160 -4z"/>
<path d="M5317 6410 c-29 -9 -66 -25 -82 -35 -31 -20 -196 -155 -345 -284 -47
-40 -96 -83 -110 -95 -14 -11 -54 -46 -90 -76 -36 -30 -74 -64 -86 -75 -12
-11 -34 -31 -50 -44 -33 -28 -153 -131 -170 -146 -6 -5 -37 -32 -70 -60 -32
-27 -81 -70 -109 -94 -27 -24 -63 -55 -80 -69 -16 -14 -46 -39 -65 -56 -20
-17 -60 -51 -89 -76 -30 -25 -63 -54 -75 -65 -12 -11 -48 -42 -81 -69 -33 -27
-64 -54 -70 -60 -5 -6 -53 -47 -105 -91 -52 -44 -97 -82 -100 -85 -3 -3 -39
-35 -80 -70 -41 -35 -77 -66 -80 -69 -3 -3 -48 -42 -100 -86 -52 -44 -97 -82
-100 -85 -3 -3 -39 -34 -80 -70 -41 -36 -81 -70 -88 -77 -7 -6 -46 -40 -87
-74 -85 -70 -98 -87 -27 -37 163 118 777 553 962 683 85 60 157 112 160 115 3
3 23 17 45 32 22 15 60 42 85 59 25 18 72 51 105 74 33 23 206 145 385 270
179 126 345 243 370 260 365 256 524 372 550 401 62 71 28 156 -68 169 -63 8
-113 4 -175 -15z"/>
<path d="M2709 6243 c-80 -20 -165 -80 -195 -137 -12 -21 -14 -44 -10 -90 4
-33 9 -90 11 -126 3 -36 7 -81 10 -100 2 -19 7 -64 10 -100 3 -36 8 -76 10
-90 2 -14 7 -52 10 -85 3 -33 8 -71 10 -85 2 -14 6 -56 10 -95 3 -38 8 -81 10
-95 2 -14 7 -52 10 -85 11 -112 16 -159 30 -270 2 -16 7 -57 10 -90 3 -33 8
-73 11 -90 2 -16 6 -50 9 -75 10 -100 17 -156 20 -175 2 -11 4 -35 4 -54 1
-19 3 -32 6 -29 7 7 11 41 20 158 3 52 8 111 10 130 2 19 7 76 10 125 3 50 8
106 10 125 2 19 7 73 10 120 3 47 8 101 10 120 2 19 7 73 10 120 3 47 8 101
10 120 4 35 10 96 20 220 3 36 8 81 10 100 2 19 7 64 10 100 3 36 8 83 10 105
2 22 7 69 9 105 3 36 8 94 12 130 5 56 3 68 -13 81 -27 24 -64 27 -124 12z"/>
<path d="M6358 5619 c-25 -4 -109 -30 -185 -59 -178 -67 -752 -288 -778 -300
-27 -13 -285 -114 -1535 -602 -257 -101 -524 -206 -722 -284 -103 -40 -199
-76 -213 -80 -14 -3 -27 -10 -30 -14 -2 -4 42 6 98 22 56 15 165 46 242 67
292 82 509 142 770 216 149 42 278 77 287 80 9 2 72 19 140 39 102 29 314 88
728 203 30 8 69 18 85 23 17 4 179 49 360 100 182 51 344 96 360 101 216 58
505 145 548 163 81 35 147 117 147 183 0 98 -144 166 -302 142z"/>
<path d="M1457 5551 c-100 -40 -186 -128 -187 -193 0 -21 17 -40 91 -99 91
-72 1038 -810 1094 -852 16 -12 53 -42 83 -66 30 -24 53 -38 51 -33 -2 6 -51
68 -109 139 -58 70 -110 135 -117 143 -54 67 -215 265 -245 301 -20 24 -148
184 -283 354 -136 171 -248 311 -249 312 -1 1 -20 5 -41 8 -27 3 -56 -1 -88
-14z"/>
<path d="M431 4573 c-92 -44 -180 -152 -176 -216 4 -59 0 -59 385 -72 96 -3
227 -8 290 -10 63 -2 207 -7 320 -10 113 -3 255 -8 315 -10 61 -3 184 -7 275
-10 91 -2 239 -7 330 -10 91 -4 209 -8 263 -10 54 -1 97 -2 95 0 -2 2 -44 11
-93 19 -50 9 -101 18 -115 21 -14 3 -61 12 -105 20 -44 8 -116 21 -160 29
-122 23 -406 75 -440 81 -16 2 -41 7 -55 10 -40 8 -68 13 -190 35 -63 12 -158
30 -210 40 -52 11 -131 26 -175 34 -44 9 -91 18 -105 21 -14 3 -62 12 -107 20
-288 52 -271 51 -342 18z"/>
<path d="M2910 4180 c25 -4 61 -11 80 -15 19 -3 94 -17 165 -30 72 -13 146
-26 165 -29 39 -6 68 -12 150 -27 96 -18 164 -30 191 -34 14 -2 75 -13 135
-24 60 -11 123 -22 139 -25 17 -2 107 -18 200 -34 94 -17 251 -44 350 -62 228
-39 225 -39 255 -45 24 -5 156 -28 450 -79 80 -14 163 -28 185 -31 22 -4 47
-8 55 -10 8 -2 31 -7 50 -10 19 -3 58 -10 85 -15 28 -5 64 -12 80 -14 40 -6
206 -34 360 -61 44 -8 100 -17 125 -20 25 -3 52 -8 60 -10 8 -2 35 -7 60 -10
25 -3 60 -10 77 -15 18 -4 77 -7 130 -6 85 2 107 7 164 33 121 56 189 141 189
236 0 91 -48 157 -145 203 -68 31 -88 33 -625 49 -80 2 -226 7 -325 10 -99 3
-268 7 -375 10 -107 3 -276 7 -375 10 -99 3 -263 7 -365 10 -178 5 -352 10
-620 20 -69 2 -213 7 -320 10 -107 3 -244 8 -305 10 -273 10 -487 13 -445 5z"/>
<path d="M2795 4102 c6 -4 30 -32 55 -62 25 -30 47 -57 50 -60 3 -3 25 -30 50
-60 25 -30 55 -66 67 -80 11 -14 101 -119 199 -235 243 -287 1067 -1249 1084
-1265 3 -3 32 -36 65 -75 33 -38 67 -76 75 -85 8 -9 29 -32 45 -51 32 -36 168
-189 222 -249 17 -19 40 -44 50 -56 177 -204 233 -242 364 -248 259 -12 453
196 391 420 -26 92 -55 116 -841 699 -380 282 -1079 804 -1101 822 -8 7 -157
121 -330 254 -173 132 -328 250 -343 262 -16 12 -43 34 -60 49 -18 15 -36 28
-42 28 -7 0 -6 -3 0 -8z"/>
<path d="M2690 4010 c-1 -30 -3 -66 -5 -80 -1 -14 -6 -77 -9 -140 -4 -63 -9
-135 -11 -160 -2 -25 -7 -92 -10 -150 -3 -58 -8 -130 -10 -160 -6 -76 -17
-253 -20 -325 -1 -33 -6 -114 -9 -180 -14 -238 -16 -272 -21 -380 -3 -60 -7
-141 -10 -180 -3 -38 -7 -124 -11 -190 -3 -66 -7 -156 -9 -200 -2 -44 -7 -145
-10 -225 -3 -80 -8 -185 -10 -235 -12 -289 -18 -492 -19 -665 l-1 -195 31 -55
c102 -182 347 -192 499 -21 16 19 35 39 40 45 22 22 55 107 63 160 5 30 5 81
1 113 -5 32 -11 78 -14 103 -3 25 -10 74 -16 110 -6 36 -12 79 -14 96 -3 18
-13 87 -24 155 -11 68 -23 147 -26 174 -4 28 -8 57 -10 65 -2 8 -7 35 -10 60
-3 25 -12 83 -20 130 -8 47 -16 103 -20 125 -3 22 -12 81 -20 130 -7 50 -17
110 -20 135 -3 25 -8 52 -10 60 -2 8 -6 38 -10 65 -5 43 -10 78 -30 205 -2 14
-9 61 -15 105 -6 44 -13 91 -15 105 -2 14 -7 48 -10 75 -4 28 -8 61 -10 75 -4
23 -11 76 -19 145 -7 53 -27 199 -31 225 -2 14 -7 50 -11 80 -3 30 -7 66 -9
80 -2 14 -10 79 -19 145 -9 66 -19 140 -22 165 -2 25 -7 54 -9 65 -2 11 -7 54
-11 95 -3 41 -8 77 -9 80 -2 3 -6 37 -10 75 -4 39 -11 88 -15 110 l-8 40 -2
-55z"/>
</g>
</svg>
